<svg width="63" height="56" viewBox="0 0 63 56" fill="none" xmlns="http://www.w3.org/2000/svg">
<g clip-path="url(#clip0)">
<path d="M58.5811 0H4.50624C2.07287 0 0 2.03838 0 4.43127V51.4027C0 53.4411 1.71237 55.125 3.69511 55.125H59.3021C61.3749 55.125 62.9972 53.4411 62.9972 51.4027V4.43127C63.0873 2.03838 61.0144 0 58.5811 0ZM2.43337 4.43127C2.43337 3.27914 3.33461 2.39289 4.50624 2.39289H58.5811C59.7527 2.39289 60.6539 3.27914 60.6539 4.43127V11.6099H2.43337V4.43127ZM60.6539 51.4914C60.6539 52.2004 60.1132 52.7321 59.3922 52.7321H3.69511C2.97412 52.7321 2.43337 52.2004 2.43337 51.4914V14.0914H60.5638V51.4914H60.6539ZM40.5561 5.84928H38.9339C38.2129 5.84928 37.6721 6.38103 37.6721 7.09003C37.6721 7.79904 38.2129 8.33079 38.9339 8.33079H40.5561C41.2771 8.33079 41.8179 7.79904 41.8179 7.09003C41.7277 6.38103 41.187 5.84928 40.5561 5.84928ZM48.2167 5.84928H46.5945C45.8735 5.84928 45.3327 6.38103 45.3327 7.09003C45.3327 7.79904 45.8735 8.33079 46.5945 8.33079H48.2167C48.9377 8.33079 49.4785 7.79904 49.4785 7.09003C49.3883 6.38103 48.8476 5.84928 48.2167 5.84928ZM55.8773 5.84928H54.2551C53.5341 5.84928 52.9933 6.38103 52.9933 7.09003C52.9933 7.79904 53.5341 8.33079 54.2551 8.33079H55.8773C56.5983 8.33079 57.1391 7.79904 57.1391 7.09003C57.0489 6.38103 56.5082 5.84928 55.8773 5.84928ZM20.7287 5.84928H8.7421C8.11122 5.84928 7.57047 6.38103 7.57047 7.00141C7.57047 7.62178 8.11122 8.24216 8.7421 8.24216H20.7287C21.4497 8.24216 21.9904 7.71041 21.9904 7.00141C21.9904 6.38103 21.4497 5.84928 20.7287 5.84928ZM31.5436 50.2506C40.9166 50.2506 48.5772 42.7174 48.5772 33.5004C48.5772 24.2834 40.9166 16.7502 31.5436 16.7502C22.1707 16.7502 14.5101 24.2834 14.5101 33.5004C14.5101 42.7174 22.1707 50.2506 31.5436 50.2506ZM31.5436 19.1431C39.5647 19.1431 46.1438 25.6127 46.1438 33.5004C46.1438 41.3881 39.5647 47.8577 31.5436 47.8577C23.5225 47.8577 16.9434 41.3881 16.9434 33.5004C16.9434 25.6127 23.5225 19.1431 31.5436 19.1431ZM24.9645 43.6037H38.2129C38.9339 43.6037 39.4746 43.0719 39.4746 42.3629V38.1975C39.4746 36.1592 38.303 34.298 36.5906 33.4118C37.4919 32.3483 38.0326 30.9303 38.0326 29.5123C38.0326 26.0559 35.1486 23.3085 31.7239 23.3085C28.2992 23.3085 25.4152 26.1445 25.4152 29.5123C25.4152 31.0189 25.9559 32.3483 26.8572 33.4118C25.1448 34.298 23.9732 36.1592 23.9732 38.1975V42.3629C23.7028 42.9833 24.2435 43.6037 24.9645 43.6037ZM31.5436 25.7014C33.7066 25.7014 35.419 27.3852 35.419 29.5123C35.419 31.6393 33.7066 33.3231 31.5436 33.3231C29.3807 33.3231 27.6683 31.6393 27.6683 29.5123C27.6683 27.3852 29.3807 25.7014 31.5436 25.7014ZM26.1362 38.1975C26.1362 36.6023 27.3979 35.3615 28.93 35.1843C29.7412 35.5388 30.5523 35.716 31.4535 35.716C32.3548 35.716 33.256 35.5388 33.977 35.1843C35.5091 35.2729 36.7709 36.6023 36.7709 38.1975V41.1222H26.1362V38.1975Z" fill="url(#paint0_linear)"/>
</g>
<defs>
<linearGradient id="paint0_linear" x1="31.5441" y1="55.1367" x2="31.5441" y2="0" gradientUnits="userSpaceOnUse">
<stop stop-color="#283B81"/>
<stop offset="1" stop-color="#14B1D3"/>
</linearGradient>
<clipPath id="clip0">
<rect width="63" height="55.125" fill="white"/>
</clipPath>
</defs>
</svg>
