<svg width="63" height="63" viewBox="0 0 63 63" fill="none" xmlns="http://www.w3.org/2000/svg">
<g clip-path="url(#clip0)">
<path d="M16.234 44.6809H14.2234V46.6915C12.5106 46.6915 11.1702 48.0319 11.1702 49.7447C11.1702 51.4575 12.5106 52.7979 14.2234 52.7979H16.234C16.8298 52.7979 17.2766 53.2447 17.2766 53.8404C17.2766 54.4362 16.8298 54.883 16.234 54.883H13.1809V53.8404H11.1702V56.8936H14.2234V58.9043H16.234V56.8936C17.9468 56.8936 19.2872 55.5532 19.2872 53.8404C19.2872 52.1277 17.9468 50.7872 16.234 50.7872H14.2234C13.6277 50.7872 13.1809 50.3404 13.1809 49.7447C13.1809 49.1489 13.6277 48.7021 14.2234 48.7021H17.2766V49.7447H19.2872V46.6915H16.234V44.6809ZM52.7979 18.3191V16.3085C54.5106 16.3085 55.8511 14.9681 55.8511 13.2553C55.8511 11.5426 54.5106 10.2021 52.7979 10.2021H50.7872C50.1915 10.2021 49.7447 9.75532 49.7447 9.15957C49.7447 8.56383 50.1915 8.11702 50.7872 8.11702H53.8404V9.15957H55.8511V6.10638H52.7979V4.09575H50.7872V6.10638C49.0745 6.10638 47.734 7.44681 47.734 9.15957C47.734 10.8723 49.0745 12.2128 50.7872 12.2128H52.7979C53.3936 12.2128 53.8404 12.6596 53.8404 13.2553C53.8404 13.8511 53.3936 14.2979 52.7979 14.2979H49.7447V13.2553H47.734V16.3085H50.7872V18.3191H52.7979ZM61.5106 49.4468L52.0532 44.6809H30.4574V37.3085L34.5532 32.9894C35.1489 33.2872 35.8191 33.5106 36.4894 33.5106C37.8298 33.5106 39.0213 32.8404 39.766 31.8723L46.766 34.7021C46.6915 35 46.6915 35.2979 46.6915 35.5957C46.6915 38.4255 49 40.6596 51.7553 40.6596C54.5851 40.6596 56.8192 38.3511 56.8192 35.5957C56.8192 33.1383 55.1064 31.1277 52.7234 30.6064V22.266C58.383 21.7447 62.8511 16.9787 62.8511 11.1702C62.8511 4.98936 57.8617 0 51.6809 0C45.5 0 40.5106 4.98936 40.5106 11.1702C40.5106 16.9787 44.9787 21.7447 50.6383 22.266V30.5319C49.2979 30.8298 48.1809 31.6489 47.4362 32.6915L40.4362 29.8617C40.4362 29.7128 40.5106 29.4894 40.5106 29.3404C40.5106 27.1064 38.7234 25.2447 36.4149 25.2447C34.1064 25.2447 32.3192 27.0319 32.3192 29.3404C32.3192 30.1596 32.5426 30.8298 32.9149 31.5L30.234 34.2553V11.1702C30.234 8.34043 27.9255 6.10638 25.1702 6.10638H5.06383C2.30851 6.10638 0 8.34043 0 11.1702V45.7234C0 48.1809 1.78723 50.266 4.09575 50.7128C4.09575 51.0851 4.02128 51.4574 4.02128 51.8298C4.02128 58.0106 9.01064 63 15.1915 63C18.617 63 21.7447 61.4362 23.8298 58.9043H52.0532L61.5106 54.1383C62.4043 53.6915 63 52.7979 63 51.7553C63 50.7872 62.4043 49.8936 61.5106 49.4468ZM42.6702 11.1702C42.6702 6.10638 46.766 2.01064 51.8298 2.01064C56.8936 2.01064 60.9149 6.10638 60.9149 11.1702C60.9149 16.234 56.8192 20.3298 51.7553 20.3298C46.6915 20.3298 42.6702 16.234 42.6702 11.1702ZM51.8298 32.4681C53.5426 32.4681 54.883 33.8085 54.883 35.5213C54.883 37.234 53.5426 38.5745 51.8298 38.5745C50.117 38.5745 48.7766 37.234 48.7766 35.5213C48.7766 33.883 50.117 32.4681 51.8298 32.4681ZM36.5638 27.4043C37.6809 27.4043 38.5745 28.2979 38.5745 29.4149C38.5745 30.5319 37.6809 31.4255 36.5638 31.4255C35.4468 31.4255 34.5532 30.5319 34.5532 29.4149C34.5532 28.2979 35.4468 27.4043 36.5638 27.4043ZM26.3617 50.7872C26.2128 49.3723 25.8404 47.9574 25.1702 46.766H49.8936L48.5532 48.7766L49.8936 50.7872H26.3617ZM28.4468 44.6809H23.8298C23.7553 44.6064 23.6809 44.5319 23.6064 44.4575L28.3723 39.3936V44.6809H28.4468ZM2.01064 45.7234V11.1702C2.01064 9.45745 3.35106 8.11702 5.06383 8.11702H25.3936C27.1064 8.11702 28.4468 9.45745 28.4468 11.1702V36.4894L22.1915 43.0426C20.2553 41.5532 17.8723 40.5851 15.266 40.5851C13.4043 40.5851 11.617 41.0319 10.0532 41.8511C9.75532 41.1064 9.01064 40.5851 8.19149 40.5851H6.10638C4.98936 40.5851 4.09575 41.4787 4.09575 42.5957V44.6809C4.09575 45.5745 4.61702 46.2447 5.3617 46.5426C4.98936 47.2128 4.69149 47.883 4.54255 48.6277C3.12766 48.4043 2.01064 47.2128 2.01064 45.7234ZM6.62766 44.6809H6.10638V42.6702H8.11702V43.1915C7.59574 43.6383 7.07447 44.1596 6.62766 44.6809ZM15.266 60.9149C10.2021 60.9149 6.10638 56.8192 6.10638 51.7553C6.10638 46.6915 10.2021 42.5957 15.266 42.5957C20.3298 42.5957 24.4255 46.6915 24.4255 51.7553C24.4255 56.8192 20.2553 60.9149 15.266 60.9149ZM26.3617 52.7979H49.8936L48.5532 54.8085L49.8936 56.8192H25.1702C25.8404 55.6277 26.2128 54.2872 26.3617 52.7979ZM60.617 52.3511L52.1277 56.5957L50.9362 54.883L52.9468 51.8298L50.9362 48.7766L52.1277 47.0638L60.5426 51.3085C60.766 51.383 60.9149 51.6064 60.9149 51.9043C60.9149 52.2021 60.8404 52.2766 60.617 52.3511ZM6.10638 22.3404H24.4255C25.5426 22.3404 26.4362 21.4468 26.4362 20.3298V12.2128C26.4362 11.0957 25.5426 10.2021 24.4255 10.2021H6.10638C4.98936 10.2021 4.09575 11.0957 4.09575 12.2128V20.3298C4.09575 21.4468 4.98936 22.3404 6.10638 22.3404ZM6.10638 12.2128H24.4255V20.3298H6.10638V12.2128ZM6.10638 30.4574H8.11702C9.23404 30.4574 10.1277 29.5638 10.1277 28.4468V26.4362C10.1277 25.3191 9.23404 24.4255 8.11702 24.4255H6.10638C4.98936 24.4255 4.09575 25.3191 4.09575 26.4362V28.4468C4.09575 29.5638 4.98936 30.4574 6.10638 30.4574ZM6.10638 26.4362H8.11702V28.4468H6.10638V26.4362ZM16.234 24.3511H14.2234C13.1064 24.3511 12.2128 25.2447 12.2128 26.3617V28.3723C12.2128 29.4894 13.1064 30.383 14.2234 30.383H16.234C17.3511 30.383 18.2447 29.4894 18.2447 28.3723V26.3617C18.3191 25.3192 17.3511 24.3511 16.234 24.3511ZM14.2234 28.4468V26.4362H16.234V28.4468H14.2234ZM24.3511 24.3511H22.3404C21.2234 24.3511 20.3298 25.2447 20.3298 26.3617V28.3723C20.3298 29.4894 21.2234 30.383 22.3404 30.383H24.3511C25.4681 30.383 26.3617 29.4894 26.3617 28.3723V26.3617C26.4362 25.3192 25.4681 24.3511 24.3511 24.3511ZM22.3404 28.4468V26.4362H24.3511V28.4468H22.3404ZM6.10638 38.5745H8.11702C9.23404 38.5745 10.1277 37.6809 10.1277 36.5638V34.5532C10.1277 33.4362 9.23404 32.5426 8.11702 32.5426H6.10638C4.98936 32.5426 4.09575 33.4362 4.09575 34.5532V36.5638C4.09575 37.6809 4.98936 38.5745 6.10638 38.5745ZM6.10638 34.5532H8.11702V36.5638H6.10638V34.5532ZM16.234 32.4681H14.2234C13.1064 32.4681 12.2128 33.3617 12.2128 34.4787V36.4894C12.2128 37.6064 13.1064 38.5 14.2234 38.5H16.234C17.3511 38.5 18.2447 37.6064 18.2447 36.4894V34.4787C18.3191 33.4362 17.3511 32.4681 16.234 32.4681ZM14.2234 36.5638V34.5532H16.234V36.5638H14.2234ZM24.3511 32.4681H22.3404C21.2234 32.4681 20.3298 33.3617 20.3298 34.4787V36.4894C20.3298 37.6064 21.2234 38.5 22.3404 38.5H24.3511C25.4681 38.5 26.3617 37.6064 26.3617 36.4894V34.4787C26.4362 33.4362 25.4681 32.4681 24.3511 32.4681ZM22.3404 36.5638V34.5532H24.3511V36.5638H22.3404Z" fill="url(#paint0_linear)"/>
</g>
<defs>
<linearGradient id="paint0_linear" x1="31.487" y1="62.9742" x2="31.487" y2="0" gradientUnits="userSpaceOnUse">
<stop stop-color="#283B81"/>
<stop offset="1" stop-color="#14B1D3"/>
</linearGradient>
<clipPath id="clip0">
<rect width="63" height="63" fill="white"/>
</clipPath>
</defs>
</svg>
