<svg width="63" height="55" viewBox="0 0 63 55" fill="none" xmlns="http://www.w3.org/2000/svg">
<path d="M41.3588 9.85878H21.6412C21 9.85878 20.4389 10.4198 20.4389 11.0611C20.4389 11.7023 21 12.2634 21.6412 12.2634H41.3588C42 12.2634 42.5611 11.7023 42.5611 11.0611C42.5611 10.4198 42 9.85878 41.3588 9.85878ZM61.7977 4.88931H53.6221V4.32824C53.6221 1.92366 51.6985 0 49.2939 0C46.8893 0 44.9656 1.92366 44.9656 4.32824V4.96947H17.9542V4.32824C17.9542 1.92366 16.0305 0 13.626 0C11.2214 0 9.29771 1.92366 9.29771 4.32824V4.96947H1.20229C0.561069 4.88931 0 5.45038 0 6.17176V52.9008C0 53.2214 0.160305 53.542 0.320611 53.7824C0.480916 54.0229 0.881679 54.1031 1.20229 54.1031H61.7176C62.0382 54.1031 62.3588 53.9427 62.5992 53.7824C62.8397 53.542 63 53.2214 63 52.9008V39.9962C63 39.355 62.4389 38.7939 61.7977 38.7939C61.1565 38.7939 60.5954 39.355 60.5954 39.9962V51.6985H2.48473V17.2328H60.5954V28.9351C60.5954 29.5763 61.1565 30.1374 61.7977 30.1374C62.4389 30.1374 63 29.5763 63 28.9351V6.17176C63 5.45038 62.4389 4.88931 61.7977 4.88931ZM47.5305 4.32824C47.5305 3.28626 48.3321 2.48473 49.374 2.48473C50.416 2.48473 51.2176 3.28626 51.2176 4.32824V9.85878H47.5305V4.32824ZM11.7824 4.32824C11.7824 3.28626 12.584 2.48473 13.626 2.48473C14.6679 2.48473 15.4695 3.28626 15.4695 4.32824V9.85878H11.7824V4.32824ZM60.5153 14.7481H2.48473V7.37405H9.37786V11.0611C9.37786 11.7023 9.93893 12.2634 10.5802 12.2634H16.7519C17.3931 12.2634 17.9542 11.7023 17.9542 11.0611V7.37405H45.0458V11.0611C45.0458 11.7023 45.6069 12.2634 46.2481 12.2634H52.4198C53.0611 12.2634 53.6221 11.7023 53.6221 11.0611V7.37405H60.5153V14.7481ZM61.7977 33.2634C62.4389 33.2634 63 33.8244 63 34.4656C63 35.1069 62.4389 35.6679 61.7977 35.6679C61.1565 35.6679 60.5954 35.1069 60.5954 34.4656C60.5153 33.7443 61.0763 33.2634 61.7977 33.2634ZM26.1298 20.9198V48.0115C26.1298 48.6527 26.6908 49.2137 27.3321 49.2137C27.9733 49.2137 28.5343 48.6527 28.5343 48.0115V20.9198C28.5343 20.2786 27.9733 19.7176 27.3321 19.7176C26.6908 19.7176 26.1298 20.2786 26.1298 20.9198ZM17.5534 44.8855C18.2748 44.8855 18.7557 44.3244 18.7557 43.6832C18.7557 43.2023 18.7557 41.5992 18.7557 39.4351H19.7977C20.4389 39.4351 21 38.874 21 38.2328C21 37.5916 20.4389 37.0305 19.7977 37.0305H18.7557C18.7557 32.3817 18.8359 27.0916 18.7557 26.4504C18.6756 25.3282 18.0344 24.3664 17.0725 24.126C16.6718 23.9656 15.5496 23.8053 14.5076 25.1679C13.626 26.3702 8.17557 36.5496 7.53435 37.6718C7.29389 38.0725 7.37405 38.5534 7.53435 38.874C7.77481 39.2748 8.17557 39.5153 8.57634 39.5153H16.3511C16.3511 40.958 16.3511 42.4008 16.3511 43.6832C16.3511 44.4046 16.9122 44.8855 17.5534 44.8855ZM10.6603 37.0305C12.8244 33.1031 15.5496 28.1336 16.3511 26.8511C16.3511 27.9733 16.3511 32.3015 16.3511 37.0305H10.6603ZM47.4504 42.2405C47.2099 42.4809 47.1298 42.8015 47.1298 43.1221C47.1298 43.4427 47.2901 43.7634 47.4504 44.0038C47.6107 44.2443 48.0115 44.3244 48.3321 44.3244C48.6527 44.3244 48.9733 44.1641 49.2137 44.0038C49.4542 43.7634 49.5344 43.4427 49.5344 43.1221C49.5344 42.8015 49.374 42.4809 49.2137 42.2405C49.0534 42 48.6527 41.9198 48.3321 41.9198C47.9313 41.8397 47.6107 42 47.4504 42.2405ZM48.2519 35.6679C48.8931 35.6679 49.4542 36.229 49.4542 36.8702C49.4542 37.5115 48.8931 38.0725 48.2519 38.0725C47.6107 38.0725 47.0496 37.5115 47.0496 36.8702C47.0496 36.229 47.6107 35.6679 48.2519 35.6679ZM48.2519 29.5763C48.8931 29.5763 49.4542 30.1374 49.4542 30.7786C49.4542 31.4198 48.8931 31.9809 48.2519 31.9809C47.6107 31.9809 47.0496 31.4198 47.0496 30.7786C47.0496 30.0573 47.6107 29.5763 48.2519 29.5763ZM48.2519 23.4046C48.8931 23.4046 49.4542 23.9657 49.4542 24.6069C49.4542 25.2481 48.8931 25.8092 48.2519 25.8092C47.6107 25.8092 47.0496 25.2481 47.0496 24.6069C47.0496 23.9657 47.6107 23.4046 48.2519 23.4046ZM41.2786 41.8397C41.9198 41.8397 42.4809 42.4008 42.4809 43.042C42.4809 43.6832 41.9198 44.2443 41.2786 44.2443C40.6374 44.2443 40.0763 43.6832 40.0763 43.042C40.0763 42.4008 40.6374 41.8397 41.2786 41.8397ZM41.2786 35.6679C41.9198 35.6679 42.4809 36.229 42.4809 36.8702C42.4809 37.5115 41.9198 38.0725 41.2786 38.0725C40.6374 38.0725 40.0763 37.5115 40.0763 36.8702C40.0763 36.229 40.6374 35.6679 41.2786 35.6679ZM41.2786 29.5763C41.9198 29.5763 42.4809 30.1374 42.4809 30.7786C42.4809 31.4198 41.9198 31.9809 41.2786 31.9809C40.6374 31.9809 40.0763 31.4198 40.0763 30.7786C40.0763 30.0573 40.6374 29.5763 41.2786 29.5763ZM41.2786 23.4046C41.9198 23.4046 42.4809 23.9657 42.4809 24.6069C42.4809 25.2481 41.9198 25.8092 41.2786 25.8092C40.6374 25.8092 40.0763 25.2481 40.0763 24.6069C40.0763 23.9657 40.6374 23.4046 41.2786 23.4046ZM55.2252 41.8397C55.8664 41.8397 56.4275 42.4008 56.4275 43.042C56.4275 43.6832 55.8664 44.2443 55.2252 44.2443C54.584 44.2443 54.0229 43.6832 54.0229 43.042C54.0229 42.4008 54.584 41.8397 55.2252 41.8397ZM55.2252 35.6679C55.8664 35.6679 56.4275 36.229 56.4275 36.8702C56.4275 37.5115 55.8664 38.0725 55.2252 38.0725C54.584 38.0725 54.0229 37.5115 54.0229 36.8702C54.0229 36.229 54.584 35.6679 55.2252 35.6679ZM55.2252 29.5763C55.8664 29.5763 56.4275 30.1374 56.4275 30.7786C56.4275 31.4198 55.8664 31.9809 55.2252 31.9809C54.584 31.9809 54.0229 31.4198 54.0229 30.7786C54.0229 30.0573 54.584 29.5763 55.2252 29.5763ZM55.2252 23.4046C55.8664 23.4046 56.4275 23.9657 56.4275 24.6069C56.4275 25.2481 55.8664 25.8092 55.2252 25.8092C54.584 25.8092 54.0229 25.2481 54.0229 24.6069C54.0229 23.9657 54.584 23.4046 55.2252 23.4046ZM34.3053 41.8397C34.9466 41.8397 35.5076 42.4008 35.5076 43.042C35.5076 43.6832 34.9466 44.2443 34.3053 44.2443C33.6641 44.2443 33.1031 43.6832 33.1031 43.042C33.1031 42.4008 33.6641 41.8397 34.3053 41.8397ZM34.3053 35.6679C34.9466 35.6679 35.5076 36.229 35.5076 36.8702C35.5076 37.5115 34.9466 38.0725 34.3053 38.0725C33.6641 38.0725 33.1031 37.5115 33.1031 36.8702C33.1031 36.229 33.6641 35.6679 34.3053 35.6679ZM34.3053 29.5763C34.9466 29.5763 35.5076 30.1374 35.5076 30.7786C35.5076 31.4198 34.9466 31.9809 34.3053 31.9809C33.6641 31.9809 33.1031 31.4198 33.1031 30.7786C33.1031 30.0573 33.6641 29.5763 34.3053 29.5763ZM34.3053 23.4046C34.9466 23.4046 35.5076 23.9657 35.5076 24.6069C35.5076 25.2481 34.9466 25.8092 34.3053 25.8092C33.6641 25.8092 33.1031 25.2481 33.1031 24.6069C33.1031 23.9657 33.6641 23.4046 34.3053 23.4046Z" fill="url(#paint0_linear)"/>
<defs>
<linearGradient id="paint0_linear" x1="31.5079" y1="54.1543" x2="31.5079" y2="0" gradientUnits="userSpaceOnUse">
<stop stop-color="#283B81"/>
<stop offset="1" stop-color="#14B1D3"/>
</linearGradient>
</defs>
</svg>
