<svg width="40" height="40" viewBox="0 0 40 40" fill="none" xmlns="http://www.w3.org/2000/svg">
<circle cx="20" cy="20" r="20" fill="#2D9CDB"/>
<path fill-rule="evenodd" clip-rule="evenodd" d="M16.8599 20.0952V31.6892C16.8599 31.8578 16.9918 31.9897 17.1604 31.9897H21.4615C21.63 31.9897 21.7619 31.8578 21.7619 31.6892V19.9047H24.8834C25.0373 19.9047 25.1691 19.7874 25.1838 19.6262L25.4842 16.0791C25.4989 15.9032 25.3597 15.7493 25.1838 15.7493H21.7619V13.2282C21.7619 12.6346 22.2382 12.1582 22.8317 12.1582H25.2351C25.4036 12.1582 25.5355 12.0263 25.5355 11.8578V8.31067C25.5355 8.14211 25.4036 8.01019 25.2351 8.01019H21.1684C18.787 8.01019 16.8526 9.94497 16.8526 12.3268V15.7493H14.6984C14.5298 15.7493 14.3979 15.8812 14.3979 16.0498V19.5969C14.3979 19.7654 14.5298 19.8973 14.6984 19.8973H16.8526V20.0952H16.8599Z" fill="white"/>
</svg>
