<svg width="40" height="40" viewBox="0 0 40 40" fill="none" xmlns="http://www.w3.org/2000/svg">
<circle cx="20" cy="20" r="20" fill="#2D9CDB"/>
<path d="M32.4727 11.9764H24.6047C22.4584 11.9764 20.6127 13.4044 20.1117 15.4474C20.1117 15.4474 20.1117 15.4474 20.1117 15.4526L20.0326 15.7861V13.1126C21.2191 12.8624 22.1104 11.8253 22.1104 10.5849C22.1104 9.16218 20.9291 8 19.4736 8C18.0182 8 16.8369 9.15697 16.8369 10.5849C16.8369 11.8409 17.7598 12.8937 18.9727 13.123V15.7861L18.8936 15.4526C18.8936 15.4526 18.8936 15.4526 18.8936 15.4474C18.3926 13.4044 16.5469 11.9764 14.4006 11.9764H6.52734C6.2373 11.9764 6 12.211 6 12.4976V12.925C6 13.9516 6.58535 14.8428 7.4502 15.2962V15.5151C7.4502 16.5418 8.04082 17.433 8.90039 17.8864V18.1053C8.90039 19.5854 10.1291 20.7892 11.6426 20.7892H18.9727V22.4309H16.2568C15.2021 22.4309 14.3479 23.2804 14.3479 24.3227C14.3479 25.365 15.2074 26.2145 16.2568 26.2145H18.9727V27.8874H16.357C15.4289 27.8874 14.6748 28.6327 14.6748 29.5499C14.6748 30.4672 15.4289 31.2124 16.357 31.2124H18.9727V32.4788C18.9727 32.7655 19.21 33 19.5 33C19.79 33 20.0273 32.7655 20.0273 32.4788V31.2124H24.1828C24.4729 31.2124 24.7102 30.9779 24.7102 30.6913C24.7102 30.4046 24.4729 30.1701 24.1828 30.1701H20.0273V28.9297H22.8117C23.8559 28.9297 24.7102 28.0855 24.7102 27.0536C24.7102 26.0217 23.8611 25.1774 22.8117 25.1774H20.0273V23.4784H22.8275C23.8664 23.4784 24.7102 22.6446 24.7102 21.6127C24.7102 21.3156 24.6416 21.0394 24.5203 20.7892H27.3574C28.8656 20.7892 30.0996 19.5854 30.0996 18.1053V17.8864C30.9645 17.433 31.5498 16.5418 31.5498 15.5151V15.2962C32.4146 14.8428 33 13.9516 33 12.925V12.4976C33 12.211 32.7627 11.9764 32.4727 11.9764ZM17.8916 10.5902C17.8916 9.74067 18.5982 9.04753 19.4736 9.04753C20.349 9.04753 21.0557 9.74067 21.0557 10.5902C21.0557 11.4396 20.349 12.1328 19.4736 12.1328C18.5982 12.1328 17.8916 11.4396 17.8916 10.5902ZM11.6426 19.7469C10.7461 19.7469 10.0131 19.059 9.96035 18.1991H13.6465C13.9365 18.1991 14.1738 17.9646 14.1738 17.6779C14.1738 17.3913 13.9365 17.1568 13.6465 17.1568H10.1924C9.2959 17.1568 8.56289 16.4688 8.51016 15.6089H8.7C8.71055 15.6089 8.72109 15.6089 8.72637 15.6089H13.5938C13.8838 15.6089 14.1211 15.3744 14.1211 15.0878C14.1211 14.8011 13.8838 14.5666 13.5938 14.5666H8.76855C8.75801 14.5666 8.74746 14.5666 8.74219 14.5666C7.8457 14.5666 7.1127 13.8787 7.05996 13.0188H14.4006C16.0564 13.0188 17.4855 14.1184 17.8705 15.6923L18.8355 19.7469H11.6426ZM18.9727 30.1701H16.357C16.0143 30.1701 15.7295 29.8939 15.7295 29.5499C15.7295 29.206 16.009 28.9297 16.357 28.9297H18.9727V30.1701ZM22.8117 26.2145C23.2758 26.2145 23.6555 26.5897 23.6555 27.0484C23.6555 27.507 23.2758 27.8822 22.8117 27.8822H20.0273V26.2093L22.8117 26.2145ZM18.9727 25.1722H16.2568C15.7875 25.1722 15.4025 24.7917 15.4025 24.3227C15.4025 23.8537 15.7875 23.4732 16.2568 23.4732H18.9727V25.1722ZM23.6555 21.6127C23.6555 22.0661 23.2811 22.4361 22.8275 22.4361H20.0273V20.7945H22.7695C23.2758 20.7892 23.6555 21.1436 23.6555 21.6127ZM30.2578 14.5666C30.2473 14.5666 30.2367 14.5666 30.2314 14.5666H27.7002C27.4102 14.5666 27.1729 14.8011 27.1729 15.0878C27.1729 15.3744 27.4102 15.6089 27.7002 15.6089H30.4898C30.4371 16.4688 29.7041 17.1568 28.8076 17.1568H25.3535C25.0635 17.1568 24.8262 17.3913 24.8262 17.6779C24.8262 17.9646 25.0635 18.1991 25.3535 18.1991H29.0396C28.9869 19.059 28.2539 19.7469 27.3574 19.7469H20.1645L21.1295 15.6923C21.5145 14.1184 22.9436 13.0188 24.5994 13.0188H31.94C31.8926 13.8839 31.1543 14.5666 30.2578 14.5666Z" fill="white"/>
</svg>
