<svg width="61" height="63" viewBox="0 0 61 63" fill="none" xmlns="http://www.w3.org/2000/svg">
<path d="M60.338 9.01496C59.7389 8.6749 58.9686 8.84493 58.6263 9.44004L53.0632 19.0468C52.5497 18.9618 52.0362 18.9618 51.5226 19.0468C51.1803 19.1318 50.838 19.1318 50.4956 19.3019L49.8109 19.4719L48.356 19.897C47.5857 19.982 46.8154 19.812 46.0452 19.3869L39.4551 15.6462C38.5992 15.1361 38.3424 14.1159 38.8559 13.2658L40.0542 11.1404L45.4461 1.87364C45.7884 1.27852 45.6172 0.513383 45.0181 0.173319C44.419 -0.166744 43.6488 0.00328774 43.3064 0.598398L38.5136 8.75992L38.0857 8.58988C35.6893 7.22963 15.8334 3.57395 11.8964 2.80881C9.50002 2.38373 7.27479 3.40392 6.16218 5.27427L4.10812 8.75992C2.73875 11.1404 3.68019 14.371 6.24776 16.0713L5.73425 16.9214C5.30632 17.6016 5.22073 18.4517 5.3919 19.3019C5.64866 20.067 6.16218 20.7471 6.84686 21.1722L7.10362 21.3423C7.61714 21.5973 8.13065 21.7673 8.64417 21.7673C8.90092 21.7673 9.15768 21.7673 9.50002 21.6823C10.2703 21.4273 10.955 20.9172 11.3829 20.2371L11.8964 19.3869L14.8063 21.0872C10.8694 22.3624 7.36038 24.8279 4.7928 28.0585C4.1937 28.8236 3.5946 29.6738 3.08109 30.524C3.08109 30.609 2.9955 30.609 2.9955 30.694C1.54054 33.2445 0.599101 36.05 0.171172 38.9405V39.0255C0.0855858 39.8757 0 40.6408 0 41.491C0 47.017 2.13964 52.118 5.64866 55.9437C5.73425 56.0287 5.81983 56.1137 5.81983 56.1987C8.13065 58.5792 10.955 60.5345 14.1217 61.6398C14.2072 61.6398 14.2072 61.6397 14.2928 61.7248C16.5181 62.4899 19 63 21.482 63C24.3064 63 27.0451 62.4899 29.5271 61.4697C29.6127 61.4697 29.6127 61.3847 29.6983 61.3847C32.6938 60.1095 35.4325 58.2391 37.5722 55.8587C37.6577 55.7737 37.7433 55.6886 37.7433 55.6036C40.9956 51.8629 43.0497 46.932 43.0497 41.576C43.0497 40.8109 42.9641 39.9607 42.8785 39.1956C42.8785 39.1956 42.8785 39.1956 42.8785 39.1106C42.8785 39.0255 42.8785 38.9405 42.8785 38.7705V37.5803L43.2208 36.9852C43.9055 37.2402 44.5902 37.3252 45.2749 37.3252C47.1578 37.3252 48.8695 36.4751 49.8109 34.8598L51.865 31.3741L56.6578 23.2126C57.3425 22.0224 56.829 20.4921 55.6308 19.812L60.9371 10.6303C61.1083 10.0352 60.9371 9.35503 60.338 9.01496ZM30.9821 9.09998L32.0091 12.9257L30.2118 12.5856L29.1848 8.6749C29.7839 8.84493 30.383 8.92995 30.9821 9.09998ZM21.9956 7.22963L23.1082 11.3104L21.3109 10.9703L20.1982 6.88957C20.7973 6.97458 21.3965 7.0596 21.9956 7.22963ZM9.32885 18.8768C9.24327 19.0468 9.07209 19.1318 8.90092 19.2169C8.72975 19.3019 8.55858 19.2169 8.38741 19.1318L8.13065 18.9618C7.95948 18.8768 7.87389 18.7068 7.78831 18.5367C7.70272 18.3667 7.78831 18.1967 7.87389 18.0266L8.38741 17.1765L9.75678 17.9416L9.32885 18.8768ZM15.1487 23.4677L12.3244 28.3136L6.84686 29.3337C8.98651 26.6983 11.8108 24.5729 15.1487 23.4677ZM19.2568 27.7184C20.3694 27.7184 21.3965 27.1233 21.9956 26.1882L22.5091 25.338L25.3334 26.9533C26.2748 27.5484 27.473 27.7184 28.5001 27.4634C29.0136 27.3784 29.5271 27.4634 29.955 27.7184L33.3785 29.6738C34.4911 30.3539 35.3469 31.3741 35.7749 32.4793C35.8604 32.7344 36.0316 32.9894 36.2884 33.1595L37.4866 33.8396L36.9731 34.6897C36.1172 36.135 36.6307 38.0904 38.0857 38.9405L38.3424 39.1106C38.6848 39.3656 39.1127 39.4506 39.5406 39.5356L35.0046 44.1265L28.928 42.7662L28.3289 40.7259L26.9595 36.4751L29.0992 33.3295C29.4415 32.7344 29.3559 31.9692 28.7568 31.6292C28.1577 31.2891 27.3875 31.3741 27.0451 31.9692L24.9055 35.1148H18.3154L14.5496 29.3337L16.4325 26.1882C16.6892 26.6132 17.0316 26.9533 17.4595 27.2083L17.7163 27.3784C18.2298 27.5484 18.7433 27.7184 19.2568 27.7184ZM18.4865 24.1478L19 23.2976L19.8559 23.8077L20.3694 24.1478L19.8559 24.9979C19.6847 25.338 19.2568 25.423 18.9145 25.253L18.6577 25.083C18.4865 24.9979 18.4009 24.8279 18.3154 24.6579C18.3154 24.4878 18.3154 24.2328 18.4865 24.1478ZM26.5316 43.2763L24.0496 45.0617L21.6532 46.847L16.7748 43.2763L18.6577 37.5803H24.7343L26.5316 43.2763ZM4.87839 32.1393L12.4955 30.694L16.3469 36.5601L14.2928 42.7662L9.32885 43.8714L8.21624 44.1265L2.73875 38.5154C3.08109 36.22 3.85136 34.0946 4.87839 32.1393ZM5.81983 51.9479C3.85136 48.9724 2.65316 45.4867 2.56757 41.746L6.59011 45.8268L5.81983 51.9479ZM8.04506 54.4984L8.98651 46.3369L14.7208 45.0617L14.9775 44.9767L20.3694 48.8874V54.6684L14.5496 58.8342C12.0676 57.8991 9.84237 56.3688 8.04506 54.4984ZM21.6532 60.1945C20.1982 60.1945 18.8289 60.0244 17.5451 59.7694L21.7388 56.7938L26.3604 59.5994C24.8199 60.0244 23.2793 60.1945 21.6532 60.1945ZM29.3559 58.5792L22.8514 54.6684V48.9724L26.7884 46.0819L28.2433 45.0617L28.6712 45.1467L34.3199 46.4219L35.6037 54.1584C33.8064 56.0287 31.7523 57.559 29.3559 58.5792ZM37.6577 51.5229L36.7163 45.8268L40.7388 41.8311C40.5677 45.4017 39.4551 48.7173 37.6577 51.5229ZM40.4821 36.7301C40.3109 37.0702 39.883 37.1552 39.5406 36.9852L39.2839 36.8151C38.9415 36.6451 38.8559 36.22 39.0271 35.88L39.5406 35.0298L40.91 35.7949L40.4821 36.7301ZM43.392 34.4347L37.9145 31.2891C37.3154 29.7588 36.1172 28.4836 34.5767 27.5484L31.1532 25.593C30.1262 24.9979 29.0136 24.8279 27.9866 25.083C27.473 25.168 26.9595 25.083 26.5316 24.8279L22.5947 22.6175L21.3965 21.9374L12.0676 16.5814L8.55858 14.541L7.78831 14.1159C6.24776 13.2658 5.56308 11.5654 6.16218 10.2052C6.67569 11.2254 7.53155 12.0755 8.55858 12.6706L27.3019 23.3826C28.2433 23.9777 29.4415 24.1478 30.4685 23.8927C30.9821 23.8077 31.4956 23.8927 31.9235 24.1478L35.3469 26.1031C36.4595 26.7833 37.3154 27.8035 37.7433 28.9087C37.8289 29.1637 38.0001 29.4188 38.2568 29.5888L44.0767 32.9044C45.0181 33.4995 46.1307 33.7546 47.1578 33.7546C47.2434 33.7546 47.3289 33.7546 47.4145 33.7546C46.6443 35.0298 44.847 35.2849 43.392 34.4347ZM49.6398 30.1839C49.2974 30.779 48.6983 31.2041 47.928 31.3741C47.0722 31.5442 46.2163 31.3741 45.4461 30.949L39.9686 27.8035C39.3695 26.2732 38.1713 24.9979 36.6307 24.0628L33.2073 22.1074C32.1803 21.5123 31.0676 21.3423 30.0406 21.5973C29.5271 21.6823 29.0136 21.5973 28.5857 21.3423L9.84237 10.6303C8.21624 9.69509 7.53155 7.82474 8.30182 6.5495C8.90092 5.52931 10.0991 5.01922 11.4685 5.27427C13.2658 5.61433 15.4054 6.03941 17.5451 6.37947L19.1712 12.4156C19.2568 12.8407 19.6847 13.1807 20.1127 13.2658L24.5631 14.0309C24.6487 14.0309 24.7343 14.0309 24.7343 14.0309C25.0766 14.0309 25.419 13.8609 25.6757 13.6058C25.9325 13.2658 26.1037 12.8407 25.9325 12.5006L24.6487 7.73973C25.2478 7.82474 25.8469 7.99477 26.446 8.07979L28.0721 13.9459C28.1577 14.371 28.5857 14.711 29.0136 14.796L33.464 15.5612C33.5496 15.5612 33.6352 15.5612 33.6352 15.5612C33.9776 15.5612 34.3199 15.3911 34.5767 15.1361C34.8334 14.796 35.0046 14.371 34.8334 14.0309L33.6352 9.61007C35.2613 10.0352 36.4595 10.3752 36.8019 10.5452L37.401 10.8853L36.8019 11.9905C35.6037 13.9459 36.374 16.4964 38.3424 17.6866L44.0767 21.0022L42.2794 21.5123C41.5947 21.6823 41.2524 22.3624 41.4235 23.0426C41.5947 23.5527 42.1082 23.9777 42.6217 23.9777C42.7073 23.9777 42.7929 23.9777 42.9641 23.9777L48.8695 22.4475C49.2118 22.3624 49.5542 22.3624 49.8965 22.1924L50.5812 21.9374L51.9506 21.5973C52.7208 21.5123 53.4911 21.6823 54.2614 22.1074C54.347 22.1074 54.347 22.1924 54.347 22.1924L49.6398 30.1839Z" fill="url(#paint0_linear)"/>
<defs>
<linearGradient id="paint0_linear" x1="30.5225" y1="62.6663" x2="30.5225" y2="0.0883026" gradientUnits="userSpaceOnUse">
<stop stop-color="#283B81"/>
<stop offset="1" stop-color="#14B1D3"/>
</linearGradient>
</defs>
</svg>
