<svg width="40" height="40" viewBox="0 0 40 40" fill="none" xmlns="http://www.w3.org/2000/svg">
<circle cx="20" cy="20" r="20" fill="#2D9CDB"/>
<path d="M29.9675 14.6083C28.9845 11.5353 26.4385 9.04565 23.323 8.10814C19.9981 7.11333 16.5335 7.6498 13.821 9.59254C12.5211 10.5248 11.4414 11.7488 10.7001 13.1395C9.92666 14.5822 9.5238 16.1968 9.5238 17.8219C9.5238 20.0354 10.2489 22.1449 11.6133 23.9105L19.9981 34.2857L28.3776 23.9261L28.3883 23.9105C30.4348 21.2646 31.0096 17.8739 29.9675 14.6083ZM27.1045 22.9678L19.9981 31.7544L12.8971 22.9678C11.7476 21.473 11.1352 19.6969 11.1352 17.8219C11.1352 15.0874 12.4942 12.478 14.7771 10.853C17.076 9.20712 20.0196 8.75398 22.845 9.60296C25.4662 10.3894 27.6041 12.4832 28.4313 15.0718C29.3122 17.8479 28.8341 20.7282 27.1045 22.9678Z" fill="white"/>
<path d="M19.9981 12.353C16.888 12.353 14.3581 14.8062 14.3581 17.8219C14.3581 20.8375 16.888 23.2907 19.9981 23.2907C23.1082 23.2907 25.6381 20.8375 25.6381 17.8219C25.6381 14.8062 23.1135 12.353 19.9981 12.353ZM19.9981 21.7282C17.7743 21.7282 15.9695 19.9729 15.9695 17.8219C15.9695 15.6656 17.7797 13.9155 19.9981 13.9155C22.2165 13.9155 24.0267 15.6708 24.0267 17.8219C24.0321 19.9781 22.2219 21.7282 19.9981 21.7282Z" fill="white"/>
</svg>
