<svg width="18" height="18" viewBox="0 0 18 18" fill="none" xmlns="http://www.w3.org/2000/svg">
<path d="M9 18C4.03098 18 0 13.969 0 9C0 4.03098 4.03098 0 9 0C13.969 0 18 4.03098 18 9C18 13.969 13.9728 18 9 18ZM13.3361 8.56676C13.3211 8.55169 13.306 8.53286 13.2872 8.51779L6.86019 2.73503C6.59272 2.50146 6.18585 2.5316 5.95228 2.79908C5.72625 3.05902 5.74885 3.45458 5.99749 3.68815L11.897 8.99623L5.99749 14.3081C5.73755 14.5492 5.72625 14.956 5.96735 15.216C6.20469 15.4684 6.59648 15.4872 6.85643 15.2612L13.2872 9.47468C13.5546 9.23734 13.5735 8.83047 13.3361 8.56676Z" fill="#F2994A"/>
</svg>
