<svg width="45" height="63" viewBox="0 0 45 63" fill="none" xmlns="http://www.w3.org/2000/svg">
<g clip-path="url(#clip0)">
<path d="M0.190462 28.5408C-0.286811 29.8772 0.0950077 31.309 1.14501 32.1681C3.14955 34.1727 7.2541 41.4272 9.25864 46.4863C10.6905 49.9227 13.745 53.359 16.0359 55.6499C16.9905 56.6045 17.5632 57.9408 17.5632 59.3727V59.7545C17.5632 61.4727 18.995 62.9045 20.7132 62.9045H37.5132C39.2314 62.9045 40.6632 61.4727 40.6632 59.7545V56.509C40.6632 56.2227 40.7586 55.9363 40.9496 55.8408C44.8632 52.309 44.8632 46.3908 44.8632 46.1045V29.5908C44.8632 27.2999 43.2405 25.4863 40.9496 25.1999C40.0905 25.1045 39.2314 25.3908 38.5632 25.7727V24.1499C38.5632 22.6227 37.7996 21.2863 36.4632 20.5227C35.1268 19.759 33.5041 19.759 32.2632 20.6181C32.1677 19.1863 31.3086 17.9454 29.9723 17.2772C28.7314 16.609 27.2041 16.7045 25.9632 17.3727V15.6545C28.5405 14.2227 30.1632 11.4545 30.1632 8.39993C30.2586 3.81811 26.4405 -7.17909e-05 21.8586 -7.17909e-05C17.2768 -7.17909e-05 13.4586 3.81811 13.4586 8.39993C13.4586 11.359 15.0814 14.1272 17.6586 15.6545V32.5499C17.6586 33.7908 17.5632 35.0317 17.1814 36.1772C17.0859 36.559 16.7996 36.7499 16.4177 36.8454C16.0359 36.9408 15.7496 36.8454 15.4632 36.559C14.6041 35.7954 13.9359 34.9363 13.2677 33.9817C11.4541 31.2136 6.87228 26.1545 4.00864 26.1545C2.38592 26.2499 0.954099 27.109 0.190462 28.5408ZM15.5586 8.39993C15.5586 4.96357 18.4223 2.09993 21.8586 2.09993C25.295 2.09993 28.1586 4.96357 28.1586 8.39993C28.1586 10.2136 27.395 11.9317 26.0586 13.0772V8.39993C26.0586 6.10902 24.1496 4.19993 21.8586 4.19993C19.5677 4.19993 17.6586 6.10902 17.6586 8.39993V13.0772C16.3223 11.9317 15.5586 10.2136 15.5586 8.39993ZM11.5496 35.2227C12.2177 36.2727 13.0768 37.3227 14.0314 38.1817C14.795 38.9454 15.9405 39.2317 16.895 38.9454C17.945 38.659 18.8041 37.8954 19.0905 36.8454C19.5677 35.4136 19.7586 33.9817 19.6632 32.5499V8.39993C19.6632 7.25447 20.6177 6.29993 21.7632 6.29993C22.9086 6.29993 23.8632 7.25447 23.8632 8.39993V30.4499C23.8632 31.0227 24.3405 31.4999 24.9132 31.4999C25.4859 31.4999 25.9632 31.0227 25.9632 30.4499V20.9999C25.9632 19.8545 26.9177 18.8999 28.0632 18.8999C29.2086 18.8999 30.1632 19.8545 30.1632 20.9999V30.4499C30.1632 31.0227 30.6405 31.4999 31.2132 31.4999C31.7859 31.4999 32.2632 31.0227 32.2632 30.4499V24.1499C32.2632 23.0045 33.2177 22.0499 34.3632 22.0499C35.5086 22.0499 36.4632 23.0045 36.4632 24.1499V31.4999C36.4632 32.0727 36.9405 32.5499 37.5132 32.5499C38.0859 32.5499 38.5632 32.0727 38.5632 31.4999V29.3999C38.5632 28.8272 38.7541 28.3499 39.1359 27.8727C39.6132 27.4908 40.1859 27.2045 40.7586 27.2999C41.9041 27.4908 42.7632 28.4454 42.6677 29.5908V46.1999C42.6677 46.2954 42.5723 51.4499 39.4223 54.3136C38.7541 54.8863 38.4677 55.7454 38.4677 56.6045V59.8499C38.4677 60.4227 37.9905 60.8999 37.4177 60.8999H20.8086C20.2359 60.8999 19.7586 60.4227 19.7586 59.8499V59.4681C19.7586 57.4636 18.995 55.6499 17.5632 54.2181C15.7496 52.4999 12.5996 49.0636 11.2632 45.8181C9.06774 40.3772 4.86773 32.9317 2.67228 30.7363C2.19501 30.259 2.0041 29.7817 2.19501 29.3999C2.57683 28.7317 3.24501 28.3499 4.00864 28.3499C5.44046 28.3499 9.25864 31.8817 11.5496 35.2227ZM28.1586 58.7999H35.5086C36.0814 58.7999 36.5586 58.3227 36.5586 57.7499C36.5586 57.1772 36.0814 56.6999 35.5086 56.6999H28.1586C27.5859 56.6999 27.1086 57.1772 27.1086 57.7499C27.1086 58.3227 27.5859 58.7999 28.1586 58.7999ZM13.4586 17.3727C13.8405 17.3727 14.2223 17.0863 14.4132 16.7045C14.6041 16.3227 14.5086 15.8454 14.2223 15.559C10.595 11.7408 10.4041 5.7272 13.745 1.71811C14.0314 1.43175 14.0314 1.04993 13.9359 0.66811C13.8405 0.286292 13.4586 0.0953828 13.0768 -7.17909e-05C12.695 -0.0955263 12.3132 0.0953828 12.1223 0.381746C8.11319 5.24993 8.3041 12.409 12.695 16.9908C12.8859 17.2772 13.1723 17.3727 13.4586 17.3727ZM31.595 14.6045C31.8814 14.6999 32.1677 14.7954 32.3586 14.6999C32.645 14.6045 32.8359 14.4136 32.9314 14.2227C35.3177 9.64084 34.745 4.29538 31.4996 0.381746C31.3086 0.0953828 30.9268 -7.17909e-05 30.545 -7.17909e-05C30.1632 0.0953828 29.8768 0.286292 29.6859 0.66811C29.5905 1.04993 29.5905 1.43175 29.8768 1.71811C32.5496 4.96356 33.0268 9.44993 31.1177 13.1727C30.9268 13.6499 31.1177 14.3181 31.595 14.6045Z" fill="url(#paint0_linear)"/>
</g>
<defs>
<linearGradient id="paint0_linear" x1="22.4602" y1="62.9739" x2="22.4602" y2="-6.89244e-05" gradientUnits="userSpaceOnUse">
<stop stop-color="#283B81"/>
<stop offset="1" stop-color="#14B1D3"/>
</linearGradient>
<clipPath id="clip0">
<rect width="44.9591" height="63" fill="white"/>
</clipPath>
</defs>
</svg>
