<svg width="64" height="63" viewBox="0 0 64 63" fill="none" xmlns="http://www.w3.org/2000/svg">
<g clip-path="url(#clip0)">
<path d="M59.1276 33.7986C59.5476 31.86 59.7996 29.8372 59.7996 27.8143C59.7996 23.9372 58.9595 19.9757 57.3634 16.4357H59.7996V8.42858L62.3198 10.1986L63.496 8.51286L52.575 0.842858L47.1985 4.63572C42.6621 1.60143 37.4536 0 31.9931 0C26.7007 0 21.5762 1.51714 17.1238 4.29857C15.5277 1.77 12.5874 0 9.31111 0C4.27066 0 0.0702885 4.13 0.0702885 9.27144C0.0702885 13.2329 2.50651 16.6043 6.03482 17.9529C4.77471 21.1557 4.18666 24.4429 4.18666 27.8986C4.18666 30.3429 4.52269 32.7872 5.11074 35.1472C3.01055 35.1472 0.910364 36.6643 0.238304 38.6872C-0.433757 40.71 0.322311 42.7329 2.4225 44.25C6.45486 47.2 7.63096 48.2958 7.63096 48.2958L8.30302 48.8858L8.97508 48.2115C8.97508 48.2115 9.56314 47.7058 11.2433 46.3572C12.7554 48.1272 14.5196 49.6443 16.4518 50.9086C14.6876 53.4372 13.5115 56.9772 13.5115 61.8658V62.8772H31.9931H50.5588V61.8658C50.5588 56.9772 49.2987 53.4372 47.6185 50.9086C48.8786 50.0658 50.0548 49.1386 51.1468 48.0429C52.491 48.97 54.0871 49.4758 55.7673 49.4758C60.3037 49.4758 64 45.7672 64 41.2157C63.916 38.0129 61.9838 35.1472 59.1276 33.7986ZM53.5831 14.4972H51.4829V12.39H53.5831V14.4972ZM57.6994 6.91143V14.4129H55.5992V10.2829H49.3827V14.4129H47.2825V6.91143L52.407 3.28715L57.6994 6.91143ZM2.17048 9.27144C2.17048 5.31 5.36276 2.02286 9.39512 2.02286C13.4275 2.02286 16.6198 5.22572 16.6198 9.27144C16.6198 13.3172 13.4275 16.52 9.39512 16.52C5.36276 16.52 2.17048 13.3172 2.17048 9.27144ZM8.30302 46.1886C7.54696 45.5986 6.20284 44.4186 3.68261 42.5643C2.33849 41.5529 1.83445 40.4572 2.25448 39.2772C2.67452 38.0972 3.93463 37.17 5.11074 37.17C5.44677 37.17 6.62287 38.0129 7.46295 38.94L8.21902 39.6986L8.97508 39.0243C9.89917 38.0972 11.0753 37.2543 11.4953 37.2543C12.7554 37.2543 14.0155 38.1815 14.3516 39.3615C14.7716 40.5415 14.2676 41.6372 12.9234 42.6486C10.4872 44.4186 9.05909 45.5143 8.30302 46.1886ZM44.3422 60.9386V53.69H42.2421V60.9386H31.9931H22.7523V53.69H20.6521V60.9386H15.5277C15.8637 51.7515 21.1562 48.38 24.9365 47.2L27.5407 53.69L31.9931 48.1272L36.4455 53.69L39.0498 47.2C42.8301 48.38 48.1226 51.7515 48.4586 60.9386H44.3422ZM21.6602 34.8943C21.1562 34.6415 20.6521 34.1357 20.6521 33.04C20.6521 31.9443 21.1562 31.4386 21.6602 31.1857V34.8943ZM19.8121 30.0057L18.888 26.6343C18.804 26.2129 18.888 25.7915 19.14 25.4543L20.8201 23.2629C21.4922 22.3357 21.6602 21.24 21.3242 20.1443C21.0722 19.47 21.4082 18.7957 22.0803 18.5429C24.0964 17.7843 27.6247 16.9414 33.0012 17.5314C39.0498 18.2057 42.3261 19.8072 43.7542 20.65C44.1742 20.9029 44.4262 21.4086 44.3422 21.83L43.6702 29.5843C43.2501 29.3315 42.8301 29.1629 42.3261 28.9943V25.7915C42.3261 25.7072 42.2421 22.9257 37.7056 22.6729C37.5376 21.83 37.0336 21.1557 36.9496 20.9872L35.2694 22.2514C35.4374 22.5043 35.8575 23.3472 35.6895 23.7686C35.6055 24.0214 35.0174 24.6957 31.9931 24.6957C29.0529 24.6957 28.4648 23.9372 28.2968 23.7686C28.0448 23.3472 28.4648 22.5043 28.7168 22.2514L27.8768 21.6614L27.0367 21.0714C26.9527 21.1557 26.4486 21.83 26.2806 22.7572C21.7442 23.01 21.6602 25.7072 21.6602 25.8757V29.0786C21.0722 29.2472 20.4001 29.5843 19.8121 30.0057ZM37.6216 26.8872C35.6055 26.8872 33.9253 28.1515 33.2533 30.0057H30.649C29.977 28.2357 28.2968 26.8872 26.2806 26.8872C25.3565 26.8872 24.4325 27.14 23.6764 27.6457V25.8757C23.7604 25.5386 24.3485 24.8643 26.4486 24.78C27.2047 26.1286 28.9689 26.8029 31.9091 26.8029C34.8494 26.8029 36.6976 26.1286 37.3696 24.78C39.3858 24.8643 40.0579 25.5386 40.1419 25.7915V27.6457C39.4698 27.14 38.6297 26.8872 37.6216 26.8872ZM40.2259 31.5229C40.2259 32.9557 39.0498 34.1357 37.6216 34.1357C36.1935 34.1357 35.0174 32.9557 35.0174 31.5229C35.0174 30.09 36.1935 28.91 37.6216 28.91C39.0498 28.91 40.2259 30.09 40.2259 31.5229ZM28.8849 31.5229C28.8849 32.9557 27.7088 34.1357 26.2806 34.1357C24.8525 34.1357 23.6764 32.9557 23.6764 31.5229C23.6764 30.09 24.8525 28.91 26.2806 28.91C27.7088 28.91 28.8849 30.09 28.8849 31.5229ZM42.3261 31.27C42.8301 31.5229 43.3342 32.0286 43.3342 33.1243C43.3342 34.22 42.8301 34.7257 42.3261 34.9786V31.27ZM26.3646 36.1586C28.7168 36.1586 30.649 34.3043 30.985 32.0286H33.1692C33.4213 34.3886 35.3534 36.1586 37.7897 36.1586C38.7137 36.1586 39.6378 35.9057 40.3939 35.4V37.17C40.3939 37.17 40.0579 40.2886 32.1612 40.2886C24.2644 40.2886 23.9284 37.17 23.9284 37.17V35.4C24.5165 35.9057 25.3565 36.1586 26.3646 36.1586ZM35.4374 46.5258C35.7735 46.5258 36.2775 46.61 36.9496 46.6943L35.7735 49.6443L34.0093 47.4529C34.5134 47.2 35.0174 46.9472 35.4374 46.5258ZM31.9931 42.3115C32.7492 42.3115 33.4213 42.3115 34.0933 42.2272V44.9243C32.3292 46.4415 30.649 45.43 29.977 44.9243V42.2272C30.565 42.3115 31.2371 42.3115 31.9931 42.3115ZM28.5488 46.5258C28.9689 46.8629 29.3889 47.2 29.977 47.4529L28.2128 49.6443L27.0367 46.6943C27.6247 46.61 28.2128 46.5258 28.5488 46.5258ZM36.1095 44.5029V42.0586C42.2421 40.9629 42.3261 37.4229 42.3261 37.2543V37.0857C43.8382 36.7486 45.3503 35.5686 45.4343 33.2086L46.2744 22.0829C46.3584 20.8186 45.7704 19.6386 44.6783 18.9643C42.7461 17.7843 39.2178 16.2672 33.0852 15.5929C27.2887 14.9186 23.4244 15.8457 21.1562 16.6886C19.476 17.3629 18.6359 19.2172 19.224 20.9029C19.392 21.3243 19.308 21.7457 19.056 22.0829L17.3758 24.2743C16.7878 25.1172 16.5358 26.2129 16.8718 27.2243L18.6359 33.2929C18.72 35.5686 20.2321 36.6643 21.6602 37.0857V37.2543C21.6602 37.4229 21.7442 40.9629 27.8768 42.0586V44.5029C25.8606 44.7558 21.2402 45.6829 17.7119 49.3915C15.9477 48.2115 14.2676 46.7786 12.8394 45.1772C13.2595 44.84 13.6795 44.5872 14.0995 44.25C16.1157 42.7329 16.9558 40.71 16.2837 38.6872C15.6117 36.6643 13.5115 35.1472 11.4113 35.1472C10.4032 35.1472 9.05909 36.0743 8.21902 36.8329C8.051 36.6643 7.79898 36.4957 7.63096 36.3272C6.70688 33.63 6.20284 30.7643 6.20284 27.8986C6.20284 24.6114 6.79089 21.4929 7.96699 18.4586C8.38703 18.5429 8.80707 18.5429 9.31111 18.5429C14.4356 18.5429 18.5519 14.4129 18.5519 9.27144C18.5519 8.17572 18.3839 7.16429 18.0479 6.15286C22.2483 3.54 27.0367 2.10714 31.9931 2.10714C36.7816 2.10714 41.402 3.45572 45.4343 5.9L41.738 8.42858L42.9141 10.1143L45.4343 8.34429V16.52H55.1792C56.8594 20.06 57.7834 23.9372 57.7834 27.8986C57.7834 29.6686 57.6154 31.4386 57.1954 33.2086C56.6913 33.1243 56.1873 33.04 55.6833 33.04C51.1468 33.04 47.4505 36.7486 47.4505 41.3C47.4505 43.4072 48.2066 45.3458 49.5507 46.7786C48.5426 47.7058 47.4505 48.5486 46.2744 49.3915C42.7461 45.6829 38.1257 44.7558 36.1095 44.5029ZM55.6833 47.5372C52.2389 47.5372 49.4667 44.7558 49.4667 41.3C49.4667 37.8443 52.2389 35.0629 55.6833 35.0629C59.1276 35.0629 61.8998 37.8443 61.8998 41.3C61.8998 44.7558 59.0436 47.5372 55.6833 47.5372ZM32.0771 39.1086C29.977 39.1086 28.3808 38.0972 28.2968 38.0129L29.4729 36.3272C29.5569 36.4115 32.0771 38.0129 34.5134 36.3272L35.6895 38.0129C34.4294 38.8557 33.1692 39.1086 32.0771 39.1086ZM56.6913 40.2886H58.7915V42.3957H56.6913V44.5029H54.6752V42.3957H52.575V40.2886H54.6752V38.1815H56.7754V40.2886H56.6913ZM8.30302 15.5086V13.4014H5.19475V11.2943H11.4113V10.2829H5.19475V5.14143H8.30302V3.11857H10.4032V5.22572H13.5115V7.33286H7.29493V8.34429H13.5115V13.4857H10.4032V15.5929H8.30302V15.5086Z" fill="url(#paint0_linear)"/>
</g>
<defs>
<linearGradient id="paint0_linear" x1="31.9901" y1="63.0138" x2="31.9901" y2="-0.000251647" gradientUnits="userSpaceOnUse">
<stop stop-color="#283B81"/>
<stop offset="1" stop-color="#14B1D3"/>
</linearGradient>
<clipPath id="clip0">
<rect width="64" height="62.8772" fill="white"/>
</clipPath>
</defs>
</svg>
