<svg width="40" height="40" viewBox="0 0 40 40" fill="none" xmlns="http://www.w3.org/2000/svg">
<circle cx="20" cy="20" r="20" fill="#2D9CDB"/>
<path d="M25.2539 32C24.4804 32 23.7115 31.8641 22.9614 31.5922C19.6516 30.3922 16.581 28.4328 14.0775 25.9297C11.5741 23.4266 9.61451 20.3562 8.40968 17.0469C8.02526 15.9828 7.90806 14.8859 8.07214 13.7844C8.22216 12.7531 8.62533 11.75 9.23009 10.8875C9.83954 10.0203 10.6459 9.29844 11.5741 8.80156C12.5586 8.26719 13.6369 8 14.7714 8C15.123 8 15.4324 8.24844 15.5027 8.59063L16.6794 14.0844C16.731 14.3328 16.656 14.5906 16.4778 14.7734L14.4667 16.7844C16.3653 20.5578 19.4454 23.6375 23.2146 25.5312L25.2258 23.5203C25.4039 23.3422 25.6664 23.2625 25.9149 23.3187L31.4093 24.4953C31.7562 24.5703 32 24.875 32 25.2266C32 26.3656 31.7328 27.4391 31.1983 28.4281C30.7014 29.3516 29.9794 30.1625 29.1122 30.7719C28.2496 31.3766 27.2463 31.775 26.2149 31.9297C25.8961 31.9766 25.5727 32 25.2539 32ZM14.1713 9.53281C12.6711 9.69688 11.3397 10.4844 10.4584 11.7453C9.46449 13.1656 9.23009 14.9094 9.82079 16.5312C12.132 22.8969 17.106 27.8703 23.4724 30.1813C25.0945 30.7719 26.8431 30.5375 28.2589 29.5438C29.52 28.6578 30.3076 27.3266 30.4717 25.8312L26.004 24.8703L23.9037 26.9703C23.6787 27.1953 23.3412 27.2516 23.0552 27.1203C18.5921 25.025 14.9823 21.4109 12.8821 16.9484C12.7461 16.6625 12.8071 16.325 13.0321 16.1L15.1324 14L14.1713 9.53281Z" fill="white"/>
</svg>
