<svg width="32" height="32" viewBox="0 0 32 32" fill="none" xmlns="http://www.w3.org/2000/svg">
<path d="M20.1375 24.4312C18.4813 24.4312 15.5688 23.75 11.9 20.075C8.29375 16.4687 7.26875 14.2125 7.675 10.8125C7.71875 10.3937 7.825 9.96875 7.99375 9.525V9.51875C8.175 9.05625 8.425 8.61875 8.71875 8.2375C8.73125 8.21875 8.75 8.2 8.76875 8.18125L9.1625 7.78125C9.65 7.2875 10.3 7.0125 10.9938 7.0125H11.0063C11.6938 7.0125 12.3438 7.28125 12.8313 7.76875L14.3 9.2375C15.3063 10.2437 15.3063 11.8812 14.3 12.8875L14.2 12.9875C14.1938 12.9937 14.1875 13 14.1875 13L13.6188 13.5312C14.0625 14.3375 14.575 15.25 15.6438 16.325C16.7188 17.4 17.6375 17.9062 18.45 18.35C18.4625 18.3562 18.475 18.3625 18.4875 18.3687L19.1375 17.7187C20.1438 16.7125 21.7813 16.7125 22.7875 17.7187L24.2 19.1312C24.6938 19.625 24.9563 20.275 24.9563 20.9687C24.9563 21.6625 24.6813 22.3125 24.1813 22.8L23.7813 23.1937C23.7625 23.2125 23.7438 23.225 23.725 23.2437C23.3438 23.5437 22.9 23.7937 22.4438 23.975C21.9563 24.1625 21.5312 24.2812 21.1438 24.325H21.1313C20.8938 24.3875 20.5563 24.4312 20.1375 24.4312ZM21.15 24.3375H21.1438C21.1438 24.3375 21.1438 24.3375 21.15 24.3375ZM9.25625 10.0125C9.13125 10.35 9.05 10.6625 9.01875 10.9687V10.975C8.70625 13.5812 9.2 15.4625 12.8563 19.125C17.1063 23.375 20.075 23.1812 20.8875 23.0187C20.925 23.0125 20.9563 23.0062 20.9938 23C21.2688 22.9687 21.5938 22.8812 21.9813 22.7312C22.3063 22.6062 22.6188 22.425 22.8875 22.2187L23.2563 21.8562C23.4938 21.625 23.625 21.3125 23.625 20.9812C23.625 20.65 23.5 20.3375 23.2625 20.1L21.85 18.6875C21.3688 18.2062 20.5813 18.2062 20.1 18.6875L19.0875 19.6875C18.875 19.9 18.55 19.9437 18.2875 19.8C18.2563 19.7812 18.2188 19.7625 18.1875 19.7437C18.1313 19.7125 18.0688 19.6812 18.0063 19.65C17.9438 19.6125 17.8688 19.575 17.8 19.5375C16.9563 19.075 15.9 18.4937 14.6938 17.2875C13.475 16.0687 12.8938 15.0125 12.425 14.1625C12.3875 14.1 12.3563 14.0312 12.3188 13.9687C12.2813 13.9 12.2563 13.85 12.2313 13.8062C12.2188 13.7812 12.2125 13.7625 12.1938 13.7312C12.0438 13.4625 12.1 13.125 12.3188 12.9187L13.25 12.0437L13.3375 11.9562C13.5688 11.725 13.7 11.4125 13.7 11.0812C13.7 10.75 13.5688 10.4375 13.3375 10.2062L11.8688 8.7375C11.6313 8.5 11.3188 8.375 10.9875 8.375C10.6563 8.375 10.3438 8.50625 10.1125 8.74375L9.75 9.1125C9.55625 9.36875 9.38125 9.68125 9.25625 10.0125Z" fill="white"/>
<path d="M16 32C13.4187 32 10.8625 31.375 8.5875 30.1812L2.3375 31.8563C2.125 31.9125 1.9 31.8563 1.7375 31.7C1.58125 31.55 1.5125 31.325 1.5625 31.1063L2.925 25.2188C1.0125 22.5187 0 19.3375 0 16C0 11.725 1.6625 7.70625 4.6875 4.6875C7.7125 1.66875 11.725 0 16 0C20.275 0 24.2938 1.6625 27.3125 4.6875C30.3312 7.7125 32 11.725 32 16C32 20.275 30.3375 24.2938 27.3125 27.3125C24.2875 30.3312 20.275 32 16 32ZM8.66875 28.8875C8.775 28.8875 8.875 28.9125 8.96875 28.9625C11.1125 30.1313 13.5437 30.7437 16 30.7437C24.1313 30.7437 30.7437 24.1313 30.7437 16C30.7437 7.86875 24.1313 1.25625 16 1.25625C7.86875 1.25625 1.25625 7.86875 1.25625 16C1.25625 19.1625 2.24375 22.1812 4.1125 24.725C4.21875 24.875 4.2625 25.0625 4.21875 25.2375L3.03125 30.3813L8.50625 28.9125C8.55625 28.8938 8.6125 28.8875 8.66875 28.8875Z" fill="white"/>
</svg>
