<svg width="24" height="25" viewBox="0 0 24 25" fill="none" xmlns="http://www.w3.org/2000/svg">
<path d="M-3.10421e-05 12.4485C-3.07525e-05 5.82312 5.3746 0.448487 12 0.448487C18.6253 0.448487 24 5.82312 24 12.4485C24 19.0739 18.6253 24.4485 12 24.4485C5.3746 24.4485 -3.13319e-05 19.0789 -3.10421e-05 12.4485ZM12.5776 18.23C12.5977 18.2099 12.6228 18.1898 12.6429 18.1647L20.3533 9.59541C20.6647 9.23878 20.6245 8.69629 20.2679 8.38486C19.9213 8.08348 19.3939 8.11362 19.0824 8.44514L12.005 16.3112L4.92253 8.44514C4.60106 8.09855 4.05857 8.08348 3.71198 8.40495C3.37544 8.7214 3.35032 9.2438 3.65171 9.59039L11.3671 18.1647C11.6835 18.5213 12.226 18.5464 12.5776 18.23Z" fill="#F2994A"/>
</svg>
